<?xml version="1.0" encoding="UTF-8" standalone="no"?>
<!DOCTYPE svg PUBLIC "-//W3C//DTD SVG 1.1//EN"
 "http://www.w3.org/Graphics/SVG/1.1/DTD/svg11.dtd">
<!-- Generated by graphviz version 2.40.1 (20161225.0304)
 -->
<!-- Title: dependencies Pages: 1 -->
<svg width="612pt" height="211pt"
 viewBox="0.00 0.00 612.00 211.00" xmlns="http://www.w3.org/2000/svg" xmlns:xlink="http://www.w3.org/1999/xlink">
<g id="graph0" class="graph" transform="scale(1 1) rotate(0) translate(4 207)">
<title>dependencies</title>
<polygon fill="#ffffff" stroke="transparent" points="-4,4 -4,-207 608,-207 608,4 -4,4"/>
<text text-anchor="start" x="281.0091" y="-42.4" font-family="sans-serif" font-weight="bold" font-size="14.00" fill="#000000">Legend</text>
<polygon fill="#ffffb3" stroke="transparent" points="68,-10 68,-30 88,-30 88,-10 68,-10"/>
<text text-anchor="start" x="91.629" y="-15.4" font-family="sans-serif" font-size="14.00" fill="#000000"> &#160;Declarations</text>
<polygon fill="#8dd3c7" stroke="transparent" points="181,-10 181,-30 201,-30 201,-10 181,-10"/>
<text text-anchor="start" x="204.7251" y="-15.4" font-family="sans-serif" font-size="14.00" fill="#000000"> &#160;Module</text>
<polygon fill="#80b1d3" stroke="transparent" points="267,-10 267,-30 287,-30 287,-10 267,-10"/>
<text text-anchor="start" x="290.7812" y="-15.4" font-family="sans-serif" font-size="14.00" fill="#000000"> &#160;Bootstrap</text>
<polygon fill="#fdb462" stroke="transparent" points="364,-10 364,-30 384,-30 384,-10 364,-10"/>
<text text-anchor="start" x="387.6732" y="-15.4" font-family="sans-serif" font-size="14.00" fill="#000000"> &#160;Providers</text>
<polygon fill="#fb8072" stroke="transparent" points="460,-10 460,-30 480,-30 480,-10 460,-10"/>
<text text-anchor="start" x="483.7258" y="-15.4" font-family="sans-serif" font-size="14.00" fill="#000000"> &#160;Exports</text>
<g id="clust1" class="cluster">
<title>cluster_AppModule</title>
<polygon fill="none" stroke="#000000" stroke-dasharray="1,5" points="8,-70 8,-195 596,-195 596,-70 8,-70"/>
</g>
<g id="clust3" class="cluster">
<title>cluster_AppModule_imports</title>
<polygon fill="none" stroke="#000000" points="154,-78 154,-130 588,-130 588,-78 154,-78"/>
</g>
<g id="clust6" class="cluster">
<title>cluster_AppModule_providers</title>
<polygon fill="none" stroke="#000000" points="16,-78 16,-130 146,-130 146,-78 16,-78"/>
</g>
<!-- DubboModule -->
<g id="node1" class="node">
<title>DubboModule</title>
<polygon fill="#8dd3c7" stroke="#000000" points="579.657,-122 576.657,-126 555.657,-126 552.657,-122 482.343,-122 482.343,-86 579.657,-86 579.657,-122"/>
<text text-anchor="middle" x="531" y="-99.8" font-family="Times,serif" font-size="14.00" fill="#000000">DubboModule</text>
</g>
<!-- AppModule -->
<g id="node5" class="node">
<title>AppModule</title>
<polygon fill="#8dd3c7" stroke="#000000" points="353.6571,-187 350.6571,-191 329.6571,-191 326.6571,-187 270.3429,-187 270.3429,-151 353.6571,-151 353.6571,-187"/>
<text text-anchor="middle" x="312" y="-164.8" font-family="Times,serif" font-size="14.00" fill="#000000">AppModule</text>
</g>
<!-- DubboModule&#45;&gt;AppModule -->
<g id="edge1" class="edge">
<title>DubboModule&#45;&gt;AppModule</title>
<path fill="none" stroke="#000000" d="M531,-122.2843C531,-143.3211 531,-175 531,-175 531,-175 363.7077,-175 363.7077,-175"/>
<polygon fill="#000000" stroke="#000000" points="363.7077,-171.5001 353.7077,-175 363.7077,-178.5001 363.7077,-171.5001"/>
</g>
<!-- MainModule -->
<g id="node2" class="node">
<title>MainModule</title>
<polygon fill="#8dd3c7" stroke="#000000" points="464.5997,-122 461.5997,-126 440.5997,-126 437.5997,-122 375.4003,-122 375.4003,-86 464.5997,-86 464.5997,-122"/>
<text text-anchor="middle" x="420" y="-99.8" font-family="Times,serif" font-size="14.00" fill="#000000">MainModule</text>
</g>
<!-- MainModule&#45;&gt;AppModule -->
<g id="edge2" class="edge">
<title>MainModule&#45;&gt;AppModule</title>
<path fill="none" stroke="#000000" d="M420,-122.0225C420,-139.3734 420,-163 420,-163 420,-163 363.7556,-163 363.7556,-163"/>
<polygon fill="#000000" stroke="#000000" points="363.7557,-159.5001 353.7556,-163 363.7556,-166.5001 363.7557,-159.5001"/>
</g>
<!-- RedisModule -->
<g id="node3" class="node">
<title>RedisModule</title>
<polygon fill="#8dd3c7" stroke="#000000" points="357.9372,-122 354.9372,-126 333.9372,-126 330.9372,-122 266.0628,-122 266.0628,-86 357.9372,-86 357.9372,-122"/>
<text text-anchor="middle" x="312" y="-99.8" font-family="Times,serif" font-size="14.00" fill="#000000">RedisModule</text>
</g>
<!-- RedisModule&#45;&gt;AppModule -->
<g id="edge3" class="edge">
<title>RedisModule&#45;&gt;AppModule</title>
<path fill="none" stroke="#000000" d="M312,-122.1061C312,-122.1061 312,-140.991 312,-140.991"/>
<polygon fill="#000000" stroke="#000000" points="308.5001,-140.9909 312,-150.991 315.5001,-140.991 308.5001,-140.9909"/>
</g>
<!-- UserModule -->
<g id="node4" class="node">
<title>UserModule</title>
<polygon fill="#8dd3c7" stroke="#000000" points="247.9762,-122 244.9762,-126 223.9762,-126 220.9762,-122 162.0238,-122 162.0238,-86 247.9762,-86 247.9762,-122"/>
<text text-anchor="middle" x="205" y="-99.8" font-family="Times,serif" font-size="14.00" fill="#000000">UserModule</text>
</g>
<!-- UserModule&#45;&gt;AppModule -->
<g id="edge4" class="edge">
<title>UserModule&#45;&gt;AppModule</title>
<path fill="none" stroke="#000000" d="M205,-122.0225C205,-139.3734 205,-163 205,-163 205,-163 260.3246,-163 260.3246,-163"/>
<polygon fill="#000000" stroke="#000000" points="260.3247,-166.5001 270.3246,-163 260.3246,-159.5001 260.3247,-166.5001"/>
</g>
<!-- AppService -->
<g id="node6" class="node">
<title>AppService</title>
<ellipse fill="#fdb462" stroke="#000000" cx="81" cy="-104" rx="56.7406" ry="18"/>
<text text-anchor="middle" x="81" y="-99.8" font-family="Times,serif" font-size="14.00" fill="#000000">AppService</text>
</g>
<!-- AppService&#45;&gt;AppModule -->
<g id="edge5" class="edge">
<title>AppService&#45;&gt;AppModule</title>
<path fill="none" stroke="#000000" d="M81,-122.2843C81,-143.3211 81,-175 81,-175 81,-175 260.1676,-175 260.1676,-175"/>
<polygon fill="#000000" stroke="#000000" points="260.1677,-178.5001 270.1676,-175 260.1676,-171.5001 260.1677,-178.5001"/>
</g>
</g>
</svg>
